<svg width="174" height="90" viewBox="0 0 174 90" fill="none" xmlns="http://www.w3.org/2000/svg">
<path d="M28.9794 14.2879C80.7948 -0.942745 91.036 -0.581409 146.06 14.2879M28.9794 14.2879L3 52.0296M28.9794 14.2879L41.4495 33.1587L53.9196 52.0296M146.06 14.2879L120.08 52.0296M146.06 14.2879L158.53 33.1587L171 52.0296M3 52.0296C21.6707 57.9336 32.7831 58.1117 53.9196 52.0296M3 52.0296L5.77113 67.4379L7.54021 77.2745C8.16189 80.7312 10.5357 83.6639 13.8933 84.6945C24.2923 87.8865 32.1151 87.6717 43.1876 84.6209C46.821 83.6198 49.4394 80.4998 50.0252 76.7767L51.4948 67.4379L53.9196 52.0296M120.08 52.0296C138.751 57.9336 149.863 58.1117 171 52.0296M120.08 52.0296L122.852 67.4379L124.621 77.2745C125.242 80.7312 127.616 83.6639 130.974 84.6945C141.373 87.8865 149.196 87.6717 160.268 84.6209C163.901 83.6198 166.52 80.4998 167.106 76.7767L168.575 67.4379L171 52.0296" stroke="#1336B4" stroke-width="5"/>
</svg>
